<svg width="21" height="20" viewBox="0 0 21 20" fill="none" xmlns="http://www.w3.org/2000/svg">
<path d="M4.25525 19.5805H14.8934C16.0219 19.5805 17.1043 19.1322 17.9023 18.3342C18.7003 17.5362 19.1486 16.4538 19.1486 15.3253V10.1658C19.1486 9.88363 19.0365 9.61304 18.837 9.41354C18.6375 9.21403 18.3669 9.10195 18.0848 9.10195C17.8027 9.10195 17.5321 9.21403 17.3326 9.41354C17.1331 9.61304 17.021 9.88363 17.021 10.1658V15.3253C17.021 15.8895 16.7968 16.4307 16.3978 16.8297C15.9988 17.2287 15.4577 17.4529 14.8934 17.4529H4.25525C3.69097 17.4529 3.1498 17.2287 2.75079 16.8297C2.35178 16.4307 2.12762 15.8895 2.12762 15.3253V4.68713C2.12762 4.12285 2.35178 3.58168 2.75079 3.18268C3.1498 2.78367 3.69097 2.55951 4.25525 2.55951H9.57431C9.85645 2.55951 10.127 2.44743 10.3265 2.24793C10.526 2.04842 10.6381 1.77784 10.6381 1.4957C10.6381 1.21356 10.526 0.942972 10.3265 0.743468C10.127 0.543965 9.85645 0.431885 9.57431 0.431885H4.25525C3.12669 0.431885 2.04435 0.880204 1.24633 1.67822C0.448319 2.47623 0 3.55857 0 4.68713V15.3253C0 16.4538 0.448319 17.5362 1.24633 18.3342C2.04435 19.1322 3.12669 19.5805 4.25525 19.5805Z" fill="url(#paint0_linear_71_8059)"/>
<path d="M18.3933 1.80425L9.57427 10.6339L6.07433 7.12331C5.87401 6.92299 5.60231 6.81046 5.31902 6.81046C5.03572 6.81046 4.76403 6.92299 4.56371 7.12331C4.36339 7.32363 4.25085 7.59533 4.25085 7.87862C4.25085 8.01889 4.27848 8.15779 4.33216 8.28739C4.38584 8.41699 4.46452 8.53474 4.56371 8.63393L8.81896 12.8892C8.91786 12.9889 9.03552 13.068 9.16515 13.122C9.29479 13.176 9.43383 13.2039 9.57427 13.2039C9.7147 13.2039 9.85375 13.176 9.98339 13.122C10.113 13.068 10.2307 12.9889 10.3296 12.8892L19.9039 3.31487C20.1042 3.11455 20.2167 2.84285 20.2167 2.55956C20.2167 2.27626 20.1042 2.00457 19.9039 1.80425C19.7036 1.60393 19.4319 1.49139 19.1486 1.49139C18.8653 1.49139 18.5936 1.60393 18.3933 1.80425Z" fill="url(#paint1_linear_71_8059)"/>
<defs>
<linearGradient id="paint0_linear_71_8059" x1="-5.28533" y1="10.0062" x2="24.497" y2="10.0062" gradientUnits="userSpaceOnUse">
<stop stop-color="#00B0ED"/>
<stop offset="1" stop-color="#061887"/>
</linearGradient>
<linearGradient id="paint1_linear_71_8059" x1="-0.155991" y1="7.34762" x2="24.6761" y2="7.34762" gradientUnits="userSpaceOnUse">
<stop stop-color="#00B0ED"/>
<stop offset="1" stop-color="#061887"/>
</linearGradient>
</defs>
</svg>
