<svg width="1440" height="2576" viewBox="0 0 1440 2576" fill="none" xmlns="http://www.w3.org/2000/svg">
<g filter="url(#filter0_f_2025_519)">
<ellipse cx="685.052" cy="1287.9" rx="779.536" ry="161.36" transform="rotate(-18.1917 685.052 1287.9)" fill="#00B0ED"/>
<path d="M1425.15 1044.69C1428.57 1055.1 1426.83 1067 1420.28 1080.15C1413.73 1093.3 1402.39 1107.66 1386.69 1122.97C1355.28 1153.58 1306.52 1187.89 1244.09 1223.77C1119.22 1295.53 939.753 1373.52 735.272 1440.72C530.79 1507.92 340.043 1551.59 196.952 1567.89C125.403 1576.03 65.7957 1577.33 22.354 1571.32C0.632064 1568.31 -17.0195 1563.48 -30.0947 1556.77C-43.1679 1550.07 -51.6231 1541.53 -55.0461 1531.11C-58.469 1520.7 -56.7303 1508.8 -50.1803 1495.65C-43.6293 1482.5 -32.286 1468.14 -16.5829 1452.83C14.8217 1422.22 63.5801 1387.91 126.015 1352.03C250.879 1280.26 430.35 1202.28 634.832 1135.08C839.313 1067.88 1030.06 1024.21 1173.15 1007.91C1244.7 999.764 1304.31 998.465 1347.75 1004.48C1369.47 1007.49 1387.12 1012.32 1400.2 1019.02C1413.27 1025.73 1421.73 1034.27 1425.15 1044.69Z" stroke="black"/>
</g>
<defs>
<filter id="filter0_f_2025_519" x="-1057.26" y="0.237045" width="3484.63" height="2575.32" filterUnits="userSpaceOnUse" color-interpolation-filters="sRGB">
<feFlood flood-opacity="0" result="BackgroundImageFix"/>
<feBlend mode="normal" in="SourceGraphic" in2="BackgroundImageFix" result="shape"/>
<feGaussianBlur stdDeviation="500" result="effect1_foregroundBlur_2025_519"/>
</filter>
</defs>
</svg>
