<svg width="36" height="36" viewBox="0 0 36 36" fill="none" xmlns="http://www.w3.org/2000/svg">
<circle cx="18.0552" cy="17.5596" r="17.5" fill="url(#paint0_linear_71_8003)"/>
<path d="M21.6119 19.8949L21.157 20.3346C21.157 20.3346 20.074 21.3789 17.119 18.5273C14.164 15.6757 15.247 14.6313 15.247 14.6313L15.533 14.3537C16.24 13.6724 16.307 12.5775 15.69 11.7778L14.43 10.1443C13.666 9.15425 12.191 9.02322 11.316 9.86764L9.74603 11.3818C9.31303 11.8011 9.02303 12.3427 9.05803 12.9444C9.14803 14.4848 9.86603 17.7974 13.87 21.6623C18.117 25.7602 22.1019 25.9232 23.7309 25.7757C24.2469 25.7291 24.6949 25.4748 25.0559 25.1254L26.4759 23.7549C27.4359 22.83 27.1659 21.243 25.9379 20.5956L24.0279 19.5872C23.2219 19.1621 22.2419 19.2873 21.6119 19.8949Z" fill="white"/>
<defs>
<linearGradient id="paint0_linear_71_8003" x1="35.5552" y1="32.1295" x2="8.22241" y2="1.68314" gradientUnits="userSpaceOnUse">
<stop stop-color="#061887"/>
<stop offset="1" stop-color="#00B0ED"/>
</linearGradient>
</defs>
</svg>
