<svg width="36" height="36" viewBox="0 0 36 36" fill="none" xmlns="http://www.w3.org/2000/svg">
<circle cx="18.0552" cy="17.5596" r="17.5" fill="url(#paint0_linear_71_7986)"/>
<path d="M24.0552 10.0396C22.4639 8.44827 20.3056 7.55429 18.0552 7.55429C15.8047 7.55429 13.6465 8.44827 12.0552 10.0396C10.4639 11.6309 9.56989 13.7891 9.56989 16.0396C9.56989 18.29 10.4639 20.4483 12.0552 22.0396L17.3252 27.3196C17.4181 27.4133 17.5287 27.4877 17.6506 27.5385C17.7724 27.5892 17.9032 27.6154 18.0352 27.6154C18.1672 27.6154 18.2979 27.5892 18.4197 27.5385C18.5416 27.4877 18.6522 27.4133 18.7452 27.3196L24.0552 21.9896C25.6398 20.4049 26.5301 18.2556 26.5301 16.0146C26.5301 13.7735 25.6398 11.6243 24.0552 10.0396V10.0396ZM22.6252 20.5596L18.0552 25.1496L13.4852 20.5596C12.5823 19.6559 11.9676 18.5048 11.7189 17.2519C11.4701 15.9989 11.5984 14.7003 12.0875 13.5203C12.5766 12.3402 13.4046 11.3316 14.4668 10.622C15.529 9.91248 16.7778 9.53375 18.0552 9.53375C19.3326 9.53375 20.5813 9.91248 21.6435 10.622C22.7057 11.3316 23.5337 12.3402 24.0229 13.5203C24.512 14.7003 24.6403 15.9989 24.3915 17.2519C24.1427 18.5048 23.528 19.6559 22.6252 20.5596V20.5596ZM15.0552 12.9696C14.2479 13.7793 13.7946 14.8761 13.7946 16.0196C13.7946 17.163 14.2479 18.2598 15.0552 19.0696C15.6549 19.6704 16.4188 20.0807 17.2508 20.249C18.0829 20.4173 18.9461 20.3362 19.7322 20.0157C20.5184 19.6953 21.1923 19.1499 21.6696 18.4478C22.1469 17.7458 22.4063 16.9184 22.4152 16.0696C22.4197 15.5028 22.3105 14.9408 22.0941 14.417C21.8777 13.8931 21.5584 13.4179 21.1552 13.0196C20.7588 12.6142 20.2862 12.2911 19.7646 12.069C19.2429 11.847 18.6825 11.7302 18.1156 11.7256C17.5486 11.721 16.9864 11.8285 16.4611 12.042C15.9359 12.2555 15.4581 12.5707 15.0552 12.9696V12.9696ZM19.7452 17.6496C19.3662 18.0343 18.8654 18.2755 18.3283 18.3318C17.7912 18.3882 17.2512 18.2562 16.8007 17.9585C16.3501 17.6608 16.017 17.2158 15.8582 16.6997C15.6994 16.1835 15.7248 15.6282 15.9301 15.1287C16.1354 14.6292 16.5079 14.2166 16.9838 13.9613C17.4596 13.706 18.0094 13.624 18.5391 13.7292C19.0688 13.8344 19.5455 14.1203 19.8877 14.5381C20.2299 14.9559 20.4163 15.4795 20.4152 16.0196C20.4006 16.6368 20.1417 17.2231 19.6952 17.6496H19.7452Z" fill="white"/>
<defs>
<linearGradient id="paint0_linear_71_7986" x1="35.5552" y1="32.1295" x2="8.22241" y2="1.68314" gradientUnits="userSpaceOnUse">
<stop stop-color="#061887"/>
<stop offset="1" stop-color="#00B0ED"/>
</linearGradient>
</defs>
</svg>
