<svg width="122" height="100" viewBox="0 0 122 100" fill="none" xmlns="http://www.w3.org/2000/svg">
<path d="M40.3279 47.2656C40.8502 49.2125 41.1167 51.4557 41.1167 53.9648C41.1167 61.0841 38.3674 68.094 32.7488 75.0698L32.7475 75.0714C27.1523 82.0568 20.4816 87.1658 12.7645 90.385L12.0243 90.6938L12.382 91.4117L15.7829 98.2366L16.1105 98.8939L16.7745 98.5803C30.2561 92.2122 40.2366 83.9179 46.6588 73.6742C53.0666 63.4535 56.2519 52.0548 56.2519 39.5601C56.2519 36.4855 55.8678 32.5425 55.1092 27.7125L55.1091 27.7117C54.336 22.8214 52.5 18.2852 49.6708 14.1722C47.3462 10.5636 44.3429 7.5652 40.7289 5.24478C37.0473 2.88096 32.3281 1.72916 26.6885 1.72916C19.9161 1.72916 14.0315 4.06662 9.10532 8.75933C4.12508 13.4417 1.65961 19.4635 1.65961 26.728C1.65961 34.4461 4.11409 40.6122 9.12294 45.0274C14.081 49.4606 19.9275 51.664 26.6885 51.664C31.8009 51.664 36.3383 50.1966 40.3279 47.2656ZM119.538 27.7125L119.537 27.707C118.733 22.8231 116.931 18.2878 114.1 14.1722C111.775 10.5636 108.772 7.5652 105.158 5.24478C101.64 2.98651 97.1762 1.83445 91.8672 1.73606V1.66626L91.1172 1.66626C84.3417 1.66626 78.4582 4.03723 73.5341 8.69639L73.534 8.69648C68.5554 13.4089 66.0883 19.3981 66.0883 26.6651C66.0883 34.4153 68.5432 40.5803 73.5506 45.0265C78.5089 49.4603 84.3558 51.664 91.1172 51.664C96.2297 51.664 100.767 50.1966 104.757 47.2656C105.279 49.2125 105.545 51.4557 105.545 53.9648C105.545 61.0841 102.796 68.094 97.1775 75.0698C91.5494 82.0575 84.9092 87.1663 77.1933 90.385L76.453 90.6938L76.8107 91.4117L80.2117 98.2366L80.5392 98.8939L81.2033 98.5803C94.6848 92.2122 104.665 83.9179 111.088 73.6742C117.495 63.4535 120.681 52.0548 120.681 39.5601C120.681 36.4855 120.297 32.5425 119.538 27.7125Z" stroke="url(#paint0_linear_71_8114)" stroke-width="1.5"/>
<defs>
<linearGradient id="paint0_linear_71_8114" x1="-1.00119" y1="-0.550313" x2="110.127" y2="111.641" gradientUnits="userSpaceOnUse">
<stop stop-color="#00B0ED"/>
<stop offset="1" stop-color="#061887"/>
</linearGradient>
</defs>
</svg>
